<?xml version="1.0" standalone="no"?>
<!DOCTYPE svg PUBLIC "-//W3C//DTD SVG 20010904//EN"
 "http://www.w3.org/TR/2001/REC-SVG-20010904/DTD/svg10.dtd">
<svg version="1.0" xmlns="http://www.w3.org/2000/svg"
 width="1118.000000pt" height="1118.000000pt" viewBox="0 0 1118.000000 1118.000000"
 preserveAspectRatio="xMidYMid meet">
<metadata>
Created by potrace 1.14, written by Peter Selinger 2001-2017
</metadata>
<g transform="translate(0.000000,1118.000000) scale(0.100000,-0.100000)"
fill="#000000" stroke="none">
<path d="M1999 11106 c-2 -2 -24 -7 -49 -11 -120 -17 -299 -95 -409 -177 -54
-41 -1219 -1203 -1293 -1291 -89 -105 -175 -299 -195 -439 -5 -29 -8 -1927 -8
-4218 l0 -4165 28 -90 c56 -180 133 -311 253 -430 143 -142 344 -246 528 -273
28 -4 1925 -7 4216 -7 l4165 0 90 28 c130 41 259 105 343 172 49 38 156 152
195 206 42 59 146 166 528 540 255 250 355 344 384 364 51 35 159 150 207 221
70 104 116 214 155 369 4 17 9 1900 10 4185 2 4113 1 4156 -18 4250 -11 52
-24 99 -30 105 -5 5 -9 16 -9 26 0 23 -66 153 -114 223 -88 129 -241 257 -389
325 -76 36 -118 49 -222 72 -75 16 -323 18 -4221 18 -2277 1 -4143 -1 -4145
-3z"/>
</g>
</svg>
