<?xml version="1.0" encoding="UTF-8"?>
<!DOCTYPE svg PUBLIC "-//W3C//DTD SVG 1.1//EN" "http://www.w3.org/Graphics/SVG/1.1/DTD/svg11.dtd">
<svg xmlns="http://www.w3.org/2000/svg" version="1.1" width="192px" height="192px" style="shape-rendering:geometricPrecision; text-rendering:geometricPrecision; image-rendering:optimizeQuality; fill-rule:evenodd; clip-rule:evenodd" xmlns:xlink="http://www.w3.org/1999/xlink">
<g><path style="opacity:0.998" fill="#000000" d="M 21.5,-0.5 C 70.8333,-0.5 120.167,-0.5 169.5,-0.5C 180.5,3.16667 187.833,10.5 191.5,21.5C 191.5,70.8333 191.5,120.167 191.5,169.5C 187.842,180.491 180.509,187.825 169.5,191.5C 120.167,191.5 70.8333,191.5 21.5,191.5C 10.5,187.833 3.16667,180.5 -0.5,169.5C -0.5,120.167 -0.5,70.8333 -0.5,21.5C 3.17531,10.4914 10.5086,3.15803 21.5,-0.5 Z"/></g>
<g><path style="opacity:1" fill="#717070" d="M 133.5,88.5 C 133.44,89.0431 133.107,89.3764 132.5,89.5C 131.503,82.8665 131.17,76.1998 131.5,69.5C 128.5,69.5 125.5,69.5 122.5,69.5C 122.5,87.5 122.5,105.5 122.5,123.5C 121.503,105.341 121.17,87.0076 121.5,68.5C 125.167,68.5 128.833,68.5 132.5,68.5C 132.176,75.3543 132.509,82.021 133.5,88.5 Z"/></g>
<g><path style="opacity:1" fill="#f8f8f8" d="M 133.5,88.5 C 135.958,85.6925 139.125,84.3592 143,84.5C 149.499,84.3276 153.833,87.3276 156,93.5C 156.5,103.494 156.666,113.494 156.5,123.5C 153.167,123.5 149.833,123.5 146.5,123.5C 146.666,114.161 146.5,104.827 146,95.5C 141.924,91.966 137.591,91.6326 133,94.5C 132.5,104.161 132.334,113.828 132.5,123.5C 129.167,123.5 125.833,123.5 122.5,123.5C 122.5,105.5 122.5,87.5 122.5,69.5C 125.5,69.5 128.5,69.5 131.5,69.5C 131.17,76.1998 131.503,82.8665 132.5,89.5C 133.107,89.3764 133.44,89.0431 133.5,88.5 Z"/></g>
<g><path style="opacity:1" fill="#f4f4f4" d="M 46.5,127.5 C 43.3019,128.036 40.6353,127.369 38.5,125.5C 44.0936,107.72 50.0936,90.053 56.5,72.5C 59.4281,71.5159 62.4281,71.1826 65.5,71.5C 59.5639,90.3085 53.2306,108.975 46.5,127.5 Z"/></g>
<g><path style="opacity:1" fill="#f3f3f3" d="M 88.5,84.5 C 97.0597,82.9613 104.56,84.9613 111,90.5C 112.128,92.3453 112.628,94.3453 112.5,96.5C 107.779,97.2682 103.779,96.1015 100.5,93C 96.8333,91 93.1667,91 89.5,93C 87.7767,96.4079 88.7767,98.7413 92.5,100C 99.3329,100.412 105.5,102.579 111,106.5C 114.042,113.085 112.542,118.252 106.5,122C 97.4821,125.93 88.9821,125.096 81,119.5C 79.0073,117.182 77.8406,114.516 77.5,111.5C 82.8233,110.58 87.1566,112.08 90.5,116C 94.9962,118.167 99.1629,117.667 103,114.5C 103.684,113.216 103.517,112.049 102.5,111C 96.425,109.251 90.425,107.251 84.5,105C 78.2337,101.003 77.067,95.8367 81,89.5C 83.4795,87.6859 85.9795,86.0192 88.5,84.5 Z"/></g>
<g><path style="opacity:1" fill="#858585" d="M 38.5,125.5 C 40.6353,127.369 43.3019,128.036 46.5,127.5C 43.7131,128.477 40.7131,128.81 37.5,128.5C 37.2627,127.209 37.596,126.209 38.5,125.5 Z"/></g>
</svg>
