<svg width="864" height="864" viewBox="0 0 864 864" fill="none" xmlns="http://www.w3.org/2000/svg">
<g filter="url(#filter0_d_304_8)">
<rect x="18" y="4" width="828" height="828" rx="180" fill="white"/>
</g>
<g clip-path="url(#clip0_304_8)">
<path d="M419.418 165C386.484 165 356.374 184.091 342.22 213.822L285.619 333.127C262.266 306.698 224.122 296.515 189.521 310.438L189.49 310.454L189.459 310.47C145.406 328.314 124.716 378.326 142.193 421.812L142.208 421.827V421.843C155.192 454.056 176.468 483.65 202.071 508.605L184.335 545.885C164.818 586.907 179.506 637.968 220.606 659.83H220.621C263.481 682.61 316.919 665.292 338 621.09H338.015L352.296 591.046C373.041 595.93 394.432 598.65 415.665 598.65C439.52 598.65 463.18 595.558 485.97 589.875L500.728 620.981C508.305 636.954 520.351 649.888 535.01 658.354C548.125 665.93 562.343 669.846 578.145 670C585.796 669.996 593.764 668.831 601.194 666.749C620.189 661.498 635.807 649.591 646.12 635.385C653.898 624.671 659.146 612.28 661.458 599.443C664.631 581.829 662.56 563.016 654.315 545.667V545.652L635.121 505.239C680.191 460.884 713.529 403.515 726.312 339.641H726.327V339.626C735.624 292.997 705.192 247.984 659.221 238.849H659.205C612.757 229.646 567.797 259.843 558.569 306.091C557.044 313.714 554.408 322.419 551.56 329.497L496.617 213.838C482.477 184.09 452.356 165.023 419.434 165H419.418Z" fill="white"/>
<path d="M235.545 501.983L209.072 557.673C195.596 585.997 205.723 620.864 233.471 635.624C262.894 651.262 299.095 639.055 313.288 609.295L337.448 558.471C319.244 507.787 278.403 492.341 235.545 501.983Z" fill="#1A007F"/>
<path d="M653.845 265.815C646.358 264.315 638.649 264.306 631.158 265.788C623.668 267.27 616.542 270.214 610.189 274.452C603.836 278.69 598.379 284.139 594.131 290.488C589.883 296.837 586.927 303.961 585.431 311.453C579.849 339.378 566.772 365.389 548.752 387.489L601.618 498.871C650.416 456.504 686.457 398.819 699.375 334.272C705.674 302.677 685.261 272.039 653.845 265.815Z" fill="#FF9396"/>
<path d="M629.525 557.434L601.618 498.711L548.752 387.41L548.672 387.489C548.672 387.489 548.672 387.41 548.752 387.41L471.886 225.603C462.255 205.342 441.841 192.428 419.419 192.412C397.013 192.412 376.6 205.337 366.952 225.603L288.571 390.601C281.171 432.028 355.906 470.409 388.162 451.877L413.518 398.58C415.91 393.553 423.087 393.553 425.479 398.58L450.277 450.76L500.75 557.035L525.549 609.215C535.173 629.518 555.638 642.445 578.095 642.406C583.278 642.406 588.461 641.688 593.564 640.252C628.569 630.598 645.154 590.306 629.525 557.434Z" fill="#FF536A"/>
<path d="M450.435 450.76C439.112 453.473 427.311 454.909 415.749 454.909C406.739 454.909 397.41 453.872 388.081 451.877C349.408 443.659 310.497 419.723 288.489 390.601C282.988 383.341 278.522 375.761 275.413 368.022C263.372 338.261 229.484 323.9 199.742 335.868C170 347.915 155.648 381.825 167.608 411.585C181.243 445.414 205.324 476.451 235.544 501.983C265.498 527.248 300.084 546.435 337.368 558.471C362.964 566.689 389.516 571.237 415.67 571.237C444.694 571.237 473.479 566.21 500.749 557.035L450.435 450.76Z" fill="#002DC8"/>
</g>
<defs>
<filter id="filter0_d_304_8" x="0" y="0" width="864" height="864" filterUnits="userSpaceOnUse" color-interpolation-filters="sRGB">
<feFlood flood-opacity="0" result="BackgroundImageFix"/>
<feColorMatrix in="SourceAlpha" type="matrix" values="0 0 0 0 0 0 0 0 0 0 0 0 0 0 0 0 0 0 127 0" result="hardAlpha"/>
<feOffset dy="14"/>
<feGaussianBlur stdDeviation="9"/>
<feComposite in2="hardAlpha" operator="out"/>
<feColorMatrix type="matrix" values="0 0 0 0 0 0 0 0 0 0 0 0 0 0 0 0 0 0 0.25 0"/>
<feBlend mode="normal" in2="BackgroundImageFix" result="effect1_dropShadow_304_8"/>
<feBlend mode="normal" in="SourceGraphic" in2="effect1_dropShadow_304_8" result="shape"/>
</filter>
<clipPath id="clip0_304_8">
<rect width="592" height="505" fill="white" transform="translate(136 165)"/>
</clipPath>
</defs>
</svg>
