<svg width="1100" height="1100" viewBox="0 0 1024 1024" fill="none" xmlns="http://www.w3.org/2000/svg">
    <g filter="url(#filter0_d_38_2)">
        <rect x="98" y="98" width="828" height="828" rx="180" fill="white" />
    </g>
    <path
        d="M338 688C338 639.951 376.951 601 425 601H512V688C512 736.049 473.049 775 425 775C376.951 775 338 736.049 338 688Z"
        fill="#0ACF83" />
    <rect x="512" y="427" width="174" height="174" rx="87" fill="#1ABCFE" />
    <path d="M338 514C338 465.951 376.951 427 425 427H512V601H425C376.951 601 338 562.049 338 514Z" fill="#A259FF" />
    <path d="M512 253H599C647.049 253 686 291.951 686 340C686 388.049 647.049 427 599 427H512V253Z" fill="#FF7262" />
    <path d="M338 340C338 291.951 376.951 253 425 253H512V427H425C376.951 427 338 388.049 338 340Z" fill="#F24E1E" />
    <defs>
        <filter id="filter0_d_38_2" x="80" y="94" width="864" height="864" filterUnits="userSpaceOnUse"
            color-interpolation-filters="sRGB">
            <feFlood flood-opacity="0" result="BackgroundImageFix" />
            <feColorMatrix in="SourceAlpha" type="matrix" values="0 0 0 0 0 0 0 0 0 0 0 0 0 0 0 0 0 0 127 0"
                result="hardAlpha" />
            <feOffset dy="14" />
            <feGaussianBlur stdDeviation="9" />
            <feComposite in2="hardAlpha" operator="out" />
            <feColorMatrix type="matrix" values="0 0 0 0 0 0 0 0 0 0 0 0 0 0 0 0 0 0 0.25 0" />
            <feBlend mode="normal" in2="BackgroundImageFix" result="effect1_dropShadow_38_2" />
            <feBlend mode="normal" in="SourceGraphic" in2="effect1_dropShadow_38_2" result="shape" />
        </filter>
    </defs>
</svg>