<svg width="864" height="864" viewBox="0 0 864 864" fill="none" xmlns="http://www.w3.org/2000/svg">
<g filter="url(#filter0_d_308_7)">
<rect x="18" y="4" width="828" height="828" rx="180" fill="white"/>
</g>
<path d="M631.997 282.639C631.585 224.985 583.403 179 525.648 179H337.45C280.131 179 232.124 224.265 231.017 281.505C230.768 295.393 233.292 309.191 238.441 322.095C243.591 334.998 251.264 346.749 261.012 356.661C270.759 366.573 282.387 374.447 295.216 379.825C308.045 385.203 321.818 387.977 335.733 387.984H419.812C421.18 388.027 422.494 388.527 423.542 389.405C424.591 390.283 425.313 391.487 425.593 392.824C425.873 394.162 425.695 395.554 425.087 396.778C424.479 398.002 423.477 398.986 422.241 399.572L293.347 455.976C274.692 464.233 258.857 477.747 247.785 494.859C236.712 511.971 230.885 531.938 231.017 552.309C231.455 609.976 279.605 656 337.379 656H381.482C439.666 656 488.111 609.419 488.02 551.333C487.961 530.53 481.692 510.217 470.014 492.988C458.336 475.759 441.778 462.395 422.456 454.605C421.359 454.153 420.42 453.389 419.756 452.408C419.092 451.426 418.732 450.272 418.721 449.088C418.71 447.904 419.048 446.743 419.694 445.749C420.339 444.756 421.264 443.974 422.352 443.502L569.768 378.976C588.406 370.704 604.221 357.183 615.275 340.071C626.329 322.96 632.138 303 631.997 282.639Z" fill="black"/>
<defs>
<filter id="filter0_d_308_7" x="0" y="0" width="864" height="864" filterUnits="userSpaceOnUse" color-interpolation-filters="sRGB">
<feFlood flood-opacity="0" result="BackgroundImageFix"/>
<feColorMatrix in="SourceAlpha" type="matrix" values="0 0 0 0 0 0 0 0 0 0 0 0 0 0 0 0 0 0 127 0" result="hardAlpha"/>
<feOffset dy="14"/>
<feGaussianBlur stdDeviation="9"/>
<feComposite in2="hardAlpha" operator="out"/>
<feColorMatrix type="matrix" values="0 0 0 0 0 0 0 0 0 0 0 0 0 0 0 0 0 0 0.25 0"/>
<feBlend mode="normal" in2="BackgroundImageFix" result="effect1_dropShadow_308_7"/>
<feBlend mode="normal" in="SourceGraphic" in2="effect1_dropShadow_308_7" result="shape"/>
</filter>
</defs>
</svg>
